# ProBuilder 4.2.3
# https://unity3d.com/unity/features/worldbuilding/probuilder
# 7/14/2020 11:13:34 PM

mtllib ./Floor_2.mtl
o Floor 2

g Floor 2
v 0 6.71 0
v -55 6.71 0
v 0 7.06 0
v -55 7.06 0
v -55 6.71 -110
v -55 7.06 -110
v 0 6.71 -110
v 0 7.06 -110

vt 0 0
vt -110 0
vt 0 0.35
vt -110 0.35
vt 110 0
vt 110 0.35
vt 0 -110
vt 110 -110
vt -110 -110

vn 0 0 1
vn -0.5 0 0
vn 0 0 -1
vn 0.5 0 0
vn 0 1 0
vn 0 -1 0

usemtl ProBuilderDefault
f 3/3/1 4/4/1 2/2/1 1/1/1
f 4/3/2 6/4/2 5/2/2 2/1/2
f 6/6/3 8/3/3 7/1/3 5/5/3
f 8/6/4 3/3/4 1/1/4 7/5/4
f 8/7/5 6/8/5 4/5/5 3/1/5
f 1/1/6 2/2/6 5/9/6 7/7/6

