# ProBuilder 4.2.3
# https://unity3d.com/unity/features/worldbuilding/probuilder
# 7/14/2020 11:13:57 PM

mtllib ./rest_of_building.mtl
o rest of building

g Wall
v -0.0007629395 0.250824 -109.3966
v -110.0008 0.250824 -109.3966
v -0.0007629395 16.50082 -109.3966
v -110.0008 16.50082 -109.3966
v -110.0008 0.250824 -109.8966
v -110.0008 16.50082 -109.8966
v -0.0007629395 0.250824 -109.8966
v -0.0007629395 16.50082 -109.8966

vt 0 0
vt -110 0
vt 0 6.5
vt -110 6.5
vt -0.5 0
vt -0.5 6.5
vt 110 0
vt 110 6.5
vt 0.5 0
vt 0.5 6.5
vt 0 -0.5
vt 110 -0.5
vt -110 -0.5

vn 0 0 1
vn -1 0 0
vn 0 0 -1
vn 1 0 0
vn 0 2.5 0
vn 0 -2.5 0

usemtl ProBuilderDefault
f 3/3/1 4/4/1 2/2/1 1/1/1
f 4/3/2 6/6/2 5/5/2 2/1/2
f 6/8/3 8/3/3 7/1/3 5/7/3
f 8/10/4 3/3/4 1/1/4 7/9/4
f 8/11/5 6/12/5 4/7/5 3/1/5
f 1/1/6 2/2/6 5/13/6 7/11/6

g Floor 1
v 0 0 0
v -110 0 0
v 0 0.35 0
v -110 0.35 0
v -110 0 -110
v -110 0.35 -110
v 0 0 -110
v 0 0.35 -110

vt 0 0
vt -110 0
vt 0 0.35
vt -110 0.35
vt 110 0
vt 110 0.35
vt 0 -110
vt 110 -110
vt -110 -110

vn 0 0 1
vn -1 0 0
vn 0 0 -1
vn 1 0 0
vn 0 1 0
vn 0 -1 0

usemtl ProBuilderDefault
f 11/16/7 12/17/7 10/15/7 9/14/7
f 12/16/8 14/17/8 13/15/8 10/14/8
f 14/19/9 16/16/9 15/14/9 13/18/9
f 16/19/10 11/16/10 9/14/10 15/18/10
f 16/20/11 14/21/11 12/18/11 11/14/11
f 9/14/12 10/15/12 13/22/12 15/20/12

g Wall
v -109.7437 0.250824 0.4933929
v -109.7437 0.250824 -109.5066
v -109.7437 16.50082 0.4933929
v -109.7437 16.50082 -109.5066
v -109.2437 0.250824 -109.5066
v -109.2437 16.50082 -109.5066
v -109.2437 0.250824 0.493393
v -109.2437 16.50082 0.493393

vt 0 0
vt -110 0
vt 0 6.5
vt -110 6.5
vt -0.5 0
vt -0.5 6.5
vt 110 0
vt 110 6.5
vt 0.5 0
vt 0.5 6.5
vt 0 -0.5
vt 110 -0.5
vt -110 -0.5

vn -1 0 -1.192093E-07
vn 1.192093E-07 0 -1
vn 1 0 1.192093E-07
vn -1.192093E-07 0 1
vn 0 2.5 0
vn 0 -2.5 0

usemtl ProBuilderDefault
f 19/25/13 20/26/13 18/24/13 17/23/13
f 20/25/14 22/28/14 21/27/14 18/23/14
f 22/30/15 24/25/15 23/23/15 21/29/15
f 24/32/16 19/25/16 17/23/16 23/31/16
f 24/33/17 22/34/17 20/29/17 19/23/17
f 17/23/18 18/24/18 21/35/18 23/33/18

g Wall
v -0.0007629395 0.250824 0.5163879
v -110.0008 0.250824 0.5163879
v -0.0007629395 16.50082 0.5163879
v -110.0008 16.50082 0.5163879
v -110.0008 0.250824 0.01638794
v -110.0008 16.50082 0.01638794
v -0.0007629395 0.250824 0.01638794
v -0.0007629395 16.50082 0.01638794

vt 0 0
vt -110 0
vt 0 6.5
vt -110 6.5
vt -0.5 0
vt -0.5 6.5
vt 110 0
vt 110 6.5
vt 0.5 0
vt 0.5 6.5
vt 0 -0.5
vt 110 -0.5
vt -110 -0.5

vn 0 0 1
vn -1 0 0
vn 0 0 -1
vn 1 0 0
vn 0 2.5 0
vn 0 -2.5 0

usemtl ProBuilderDefault
f 27/38/19 28/39/19 26/37/19 25/36/19
f 28/38/20 30/41/20 29/40/20 26/36/20
f 30/43/21 32/38/21 31/36/21 29/42/21
f 32/45/22 27/38/22 25/36/22 31/44/22
f 32/46/23 30/47/23 28/42/23 27/36/23
f 25/36/24 26/37/24 29/48/24 31/46/24

g Wall
v -0.0007629395 0.250824 0.5163879
v -0.0007498264 0.250824 -109.4836
v -0.0007629395 16.50082 0.5163879
v -0.0007498264 16.50082 -109.4836
v 0.4992502 0.250824 -109.4836
v 0.4992502 16.50082 -109.4836
v 0.4992371 0.250824 0.516388
v 0.4992371 16.50082 0.516388

vt 0 0
vt -110 0
vt 0 6.5
vt -110 6.5
vt -0.5 0
vt -0.5 6.5
vt 110 0
vt 110 6.5
vt 0.5 0
vt 0.5 6.5
vt 0 -0.5
vt 110 -0.5
vt -110 -0.5

vn -1 0 -1.192093E-07
vn 1.192093E-07 0 -1
vn 1 0 1.192093E-07
vn -1.192093E-07 0 1
vn 0 2.5 0
vn 0 -2.5 0

usemtl ProBuilderDefault
f 35/51/25 36/52/25 34/50/25 33/49/25
f 36/51/26 38/54/26 37/53/26 34/49/26
f 38/56/27 40/51/27 39/49/27 37/55/27
f 40/58/28 35/51/28 33/49/28 39/57/28
f 40/59/29 38/60/29 36/55/29 35/49/29
f 33/49/30 34/50/30 37/61/30 39/59/30

